<svg id="container" width="425.328125" xmlns="http://www.w3.org/2000/svg" class="classDiagram" height="1248" viewBox="0 0 425.328125 1248" role="graphics-document document" aria-roledescription="class"><style>#container{font-family:"trebuchet ms",verdana,arial,sans-serif;font-size:16px;fill:#333;}@keyframes edge-animation-frame{from{stroke-dashoffset:0;}}@keyframes dash{to{stroke-dashoffset:0;}}#container .edge-animation-slow{stroke-dasharray:9,5!important;stroke-dashoffset:900;animation:dash 50s linear infinite;stroke-linecap:round;}#container .edge-animation-fast{stroke-dasharray:9,5!important;stroke-dashoffset:900;animation:dash 20s linear infinite;stroke-linecap:round;}#container .error-icon{fill:#552222;}#container .error-text{fill:#552222;stroke:#552222;}#container .edge-thickness-normal{stroke-width:1px;}#container .edge-thickness-thick{stroke-width:3.5px;}#container .edge-pattern-solid{stroke-dasharray:0;}#container .edge-thickness-invisible{stroke-width:0;fill:none;}#container .edge-pattern-dashed{stroke-dasharray:3;}#container .edge-pattern-dotted{stroke-dasharray:2;}#container .marker{fill:#333333;stroke:#333333;}#container .marker.cross{stroke:#333333;}#container svg{font-family:"trebuchet ms",verdana,arial,sans-serif;font-size:16px;}#container p{margin:0;}#container g.classGroup text{fill:#9370DB;stroke:none;font-family:"trebuchet ms",verdana,arial,sans-serif;font-size:10px;}#container g.classGroup text .title{font-weight:bolder;}#container .nodeLabel,#container .edgeLabel{color:#131300;}#container .edgeLabel .label rect{fill:#ECECFF;}#container .label text{fill:#131300;}#container .labelBkg{background:#ECECFF;}#container .edgeLabel .label span{background:#ECECFF;}#container .classTitle{font-weight:bolder;}#container .node rect,#container .node circle,#container .node ellipse,#container .node polygon,#container .node path{fill:#ECECFF;stroke:#9370DB;stroke-width:1px;}#container .divider{stroke:#9370DB;stroke-width:1;}#container g.clickable{cursor:pointer;}#container g.classGroup rect{fill:#ECECFF;stroke:#9370DB;}#container g.classGroup line{stroke:#9370DB;stroke-width:1;}#container .classLabel .box{stroke:none;stroke-width:0;fill:#ECECFF;opacity:0.5;}#container .classLabel .label{fill:#9370DB;font-size:10px;}#container .relation{stroke:#333333;stroke-width:1;fill:none;}#container .dashed-line{stroke-dasharray:3;}#container .dotted-line{stroke-dasharray:1 2;}#container #compositionStart,#container .composition{fill:#333333!important;stroke:#333333!important;stroke-width:1;}#container #compositionEnd,#container .composition{fill:#333333!important;stroke:#333333!important;stroke-width:1;}#container #dependencyStart,#container .dependency{fill:#333333!important;stroke:#333333!important;stroke-width:1;}#container #dependencyStart,#container .dependency{fill:#333333!important;stroke:#333333!important;stroke-width:1;}#container #extensionStart,#container .extension{fill:transparent!important;stroke:#333333!important;stroke-width:1;}#container #extensionEnd,#container .extension{fill:transparent!important;stroke:#333333!important;stroke-width:1;}#container #aggregationStart,#container .aggregation{fill:transparent!important;stroke:#333333!important;stroke-width:1;}#container #aggregationEnd,#container .aggregation{fill:transparent!important;stroke:#333333!important;stroke-width:1;}#container #lollipopStart,#container .lollipop{fill:#ECECFF!important;stroke:#333333!important;stroke-width:1;}#container #lollipopEnd,#container .lollipop{fill:#ECECFF!important;stroke:#333333!important;stroke-width:1;}#container .edgeTerminals{font-size:11px;line-height:initial;}#container .classTitleText{text-anchor:middle;font-size:18px;fill:#333;}#container .label-icon{display:inline-block;height:1em;overflow:visible;vertical-align:-0.125em;}#container .node .label-icon path{fill:currentColor;stroke:revert;stroke-width:revert;}#container :root{--mermaid-font-family:"trebuchet ms",verdana,arial,sans-serif;}</style><g><defs><marker id="container_class-aggregationStart" class="marker aggregation class" refX="18" refY="7" markerWidth="190" markerHeight="240" orient="auto"><path d="M 18,7 L9,13 L1,7 L9,1 Z"></path></marker></defs><defs><marker id="container_class-aggregationEnd" class="marker aggregation class" refX="1" refY="7" markerWidth="20" markerHeight="28" orient="auto"><path d="M 18,7 L9,13 L1,7 L9,1 Z"></path></marker></defs><defs><marker id="container_class-extensionStart" class="marker extension class" refX="18" refY="7" markerWidth="190" markerHeight="240" orient="auto"><path d="M 1,7 L18,13 V 1 Z"></path></marker></defs><defs><marker id="container_class-extensionEnd" class="marker extension class" refX="1" refY="7" markerWidth="20" markerHeight="28" orient="auto"><path d="M 1,1 V 13 L18,7 Z"></path></marker></defs><defs><marker id="container_class-compositionStart" class="marker composition class" refX="18" refY="7" markerWidth="190" markerHeight="240" orient="auto"><path d="M 18,7 L9,13 L1,7 L9,1 Z"></path></marker></defs><defs><marker id="container_class-compositionEnd" class="marker composition class" refX="1" refY="7" markerWidth="20" markerHeight="28" orient="auto"><path d="M 18,7 L9,13 L1,7 L9,1 Z"></path></marker></defs><defs><marker id="container_class-dependencyStart" class="marker dependency class" refX="6" refY="7" markerWidth="190" markerHeight="240" orient="auto"><path d="M 5,7 L9,13 L1,7 L9,1 Z"></path></marker></defs><defs><marker id="container_class-dependencyEnd" class="marker dependency class" refX="13" refY="7" markerWidth="20" markerHeight="28" orient="auto"><path d="M 18,7 L9,13 L14,7 L9,1 Z"></path></marker></defs><defs><marker id="container_class-lollipopStart" class="marker lollipop class" refX="13" refY="7" markerWidth="190" markerHeight="240" orient="auto"><circle stroke="black" fill="transparent" cx="7" cy="7" r="6"></circle></marker></defs><defs><marker id="container_class-lollipopEnd" class="marker lollipop class" refX="1" refY="7" markerWidth="190" markerHeight="240" orient="auto"><circle stroke="black" fill="transparent" cx="7" cy="7" r="6"></circle></marker></defs><g class="root"><g class="clusters"></g><g class="edgePaths"><path d="M311.486,209.735L313.819,212.279C316.152,214.823,320.818,219.912,323.151,240.622C325.484,261.333,325.484,297.667,325.484,334C325.484,370.333,325.484,406.667,325.484,429C325.484,451.333,325.484,459.667,325.484,463.833L325.484,468" id="id_profiles_students_1" class="edge-thickness-normal edge-pattern-solid relation" style=";;;" data-edge="true" data-et="edge" data-id="id_profiles_students_1" data-points="W3sieCI6Mjk5LjgyODEyNSwieSI6MTk3LjAyMDU2MDQ4NDQzODgyfSx7IngiOjMyNS40ODQzNzUsInkiOjIyNX0seyJ4IjozMjUuNDg0Mzc1LCJ5IjozMzR9LHsieCI6MzI1LjQ4NDM3NSwieSI6NDQzfSx7IngiOjMyNS40ODQzNzUsInkiOjQ2OH1d" marker-start="url(#container_class-extensionStart)"></path><path d="M117.576,209.735L115.243,212.279C112.91,214.823,108.244,219.912,105.911,226.622C103.578,233.333,103.578,241.667,103.578,245.833L103.578,250" id="id_profiles_recruiters_2" class="edge-thickness-normal edge-pattern-solid relation" style=";;;" data-edge="true" data-et="edge" data-id="id_profiles_recruiters_2" data-points="W3sieCI6MTI5LjIzNDM3NSwieSI6MTk3LjAyMDU2MDQ4NDQzODgyfSx7IngiOjEwMy41NzgxMjUsInkiOjIyNX0seyJ4IjoxMDMuNTc4MTI1LCJ5IjoyNTB9XQ==" marker-start="url(#container_class-extensionStart)"></path><path d="M103.578,418L103.578,422.167C103.578,426.333,103.578,434.667,103.578,442C103.578,449.333,103.578,455.667,103.578,458.833L103.578,462" id="id_recruiters_jobs_3" class="edge-thickness-normal edge-pattern-solid relation" style=";;;" data-edge="true" data-et="edge" data-id="id_recruiters_jobs_3" data-points="W3sieCI6MTAzLjU3ODEyNSwieSI6NDE4fSx7IngiOjEwMy41NzgxMjUsInkiOjQ0M30seyJ4IjoxMDMuNTc4MTI1LCJ5Ijo0Njh9XQ==" marker-end="url(#container_class-dependencyEnd)"></path><path d="M103.578,684L103.578,688.167C103.578,692.333,103.578,700.667,106.414,708.232C109.249,715.798,114.92,722.595,117.755,725.994L120.59,729.393" id="id_jobs_job_applications_4" class="edge-thickness-normal edge-pattern-solid relation" style=";;;" data-edge="true" data-et="edge" data-id="id_jobs_job_applications_4" data-points="W3sieCI6MTAzLjU3ODEyNSwieSI6Njg0fSx7IngiOjEwMy41NzgxMjUsInkiOjcwOX0seyJ4IjoxMjQuNDMzOTc1NTYzOTA5NzcsInkiOjczNH1d" marker-end="url(#container_class-dependencyEnd)"></path><path d="M325.484,684L325.484,688.167C325.484,692.333,325.484,700.667,322.649,708.232C319.814,715.798,314.143,722.595,311.307,725.994L308.472,729.393" id="id_students_job_applications_5" class="edge-thickness-normal edge-pattern-solid relation" style=";;;" data-edge="true" data-et="edge" data-id="id_students_job_applications_5" data-points="W3sieCI6MzI1LjQ4NDM3NSwieSI6Njg0fSx7IngiOjMyNS40ODQzNzUsInkiOjcwOX0seyJ4IjozMDQuNjI4NTI0NDM2MDkwMjMsInkiOjczNH1d" marker-end="url(#container_class-dependencyEnd)"></path><path d="M214.531,950L214.531,954.167C214.531,958.333,214.531,966.667,214.531,974C214.531,981.333,214.531,987.667,214.531,990.833L214.531,994" id="id_job_applications_interviews_6" class="edge-thickness-normal edge-pattern-solid relation" style=";;;" data-edge="true" data-et="edge" data-id="id_job_applications_interviews_6" data-points="W3sieCI6MjE0LjUzMTI1LCJ5Ijo5NTB9LHsieCI6MjE0LjUzMTI1LCJ5Ijo5NzV9LHsieCI6MjE0LjUzMTI1LCJ5IjoxMDAwfV0=" marker-end="url(#container_class-dependencyEnd)"></path></g><g class="edgeLabels"><g class="edgeLabel"><g class="label" data-id="id_profiles_students_1" transform="translate(0, 0)"><foreignObject width="0" height="0"><div xmlns="http://www.w3.org/1999/xhtml" class="labelBkg" style="display: table-cell; white-space: nowrap; line-height: 1.5; max-width: 200px; text-align: center;"><span class="edgeLabel"></span></div></foreignObject></g></g><g class="edgeLabel"><g class="label" data-id="id_profiles_recruiters_2" transform="translate(0, 0)"><foreignObject width="0" height="0"><div xmlns="http://www.w3.org/1999/xhtml" class="labelBkg" style="display: table-cell; white-space: nowrap; line-height: 1.5; max-width: 200px; text-align: center;"><span class="edgeLabel"></span></div></foreignObject></g></g><g class="edgeLabel"><g class="label" data-id="id_recruiters_jobs_3" transform="translate(0, 0)"><foreignObject width="0" height="0"><div xmlns="http://www.w3.org/1999/xhtml" class="labelBkg" style="display: table-cell; white-space: nowrap; line-height: 1.5; max-width: 200px; text-align: center;"><span class="edgeLabel"></span></div></foreignObject></g></g><g class="edgeLabel"><g class="label" data-id="id_jobs_job_applications_4" transform="translate(0, 0)"><foreignObject width="0" height="0"><div xmlns="http://www.w3.org/1999/xhtml" class="labelBkg" style="display: table-cell; white-space: nowrap; line-height: 1.5; max-width: 200px; text-align: center;"><span class="edgeLabel"></span></div></foreignObject></g></g><g class="edgeLabel"><g class="label" data-id="id_students_job_applications_5" transform="translate(0, 0)"><foreignObject width="0" height="0"><div xmlns="http://www.w3.org/1999/xhtml" class="labelBkg" style="display: table-cell; white-space: nowrap; line-height: 1.5; max-width: 200px; text-align: center;"><span class="edgeLabel"></span></div></foreignObject></g></g><g class="edgeLabel"><g class="label" data-id="id_job_applications_interviews_6" transform="translate(0, 0)"><foreignObject width="0" height="0"><div xmlns="http://www.w3.org/1999/xhtml" class="labelBkg" style="display: table-cell; white-space: nowrap; line-height: 1.5; max-width: 200px; text-align: center;"><span class="edgeLabel"></span></div></foreignObject></g></g></g><g class="nodes"><g class="node default" id="classId-profiles-0" transform="translate(214.53125, 104)"><g class="basic label-container"><path d="M-85.296875 -96 L85.296875 -96 L85.296875 96 L-85.296875 96" stroke="none" stroke-width="0" fill="#ECECFF" style=""></path><path d="M-85.296875 -96 C-30.96956613257236 -96, 23.35774273485528 -96, 85.296875 -96 M-85.296875 -96 C-31.184903711906657 -96, 22.927067576186687 -96, 85.296875 -96 M85.296875 -96 C85.296875 -56.468037995255244, 85.296875 -16.93607599051049, 85.296875 96 M85.296875 -96 C85.296875 -27.575829952962778, 85.296875 40.848340094074445, 85.296875 96 M85.296875 96 C39.49860296351376 96, -6.299669072972478 96, -85.296875 96 M85.296875 96 C27.37317682912697 96, -30.550521341746062 96, -85.296875 96 M-85.296875 96 C-85.296875 38.73317044130206, -85.296875 -18.533659117395885, -85.296875 -96 M-85.296875 96 C-85.296875 40.43652866558588, -85.296875 -15.126942668828235, -85.296875 -96" stroke="#9370DB" stroke-width="1.3" fill="none" stroke-dasharray="0 0" style=""></path></g><g class="annotation-group text" transform="translate(0, -72)"></g><g class="label-group text" transform="translate(-27.828125, -72)"><g class="label" style="font-weight: bolder" transform="translate(0,-12)"><foreignObject width="55.65625" height="24"><div xmlns="http://www.w3.org/1999/xhtml" style="display: table-cell; white-space: nowrap; line-height: 1.5; max-width: 105px; text-align: center;"><span class="nodeLabel markdown-node-label" style=""><p>profiles</p></span></div></foreignObject></g></g><g class="members-group text" transform="translate(-73.296875, -24)"><g class="label" style="" transform="translate(0,-12)"><foreignObject width="51.03125" height="24"><div xmlns="http://www.w3.org/1999/xhtml" style="display: table-cell; white-space: nowrap; line-height: 1.5; max-width: 101px; text-align: center;"><span class="nodeLabel markdown-node-label" style=""><p>uuid id</p></span></div></foreignObject></g><g class="label" style="" transform="translate(0,12)"><foreignObject width="86.21875" height="24"><div xmlns="http://www.w3.org/1999/xhtml" style="display: table-cell; white-space: nowrap; line-height: 1.5; max-width: 137px; text-align: center;"><span class="nodeLabel markdown-node-label" style=""><p>string email</p></span></div></foreignObject></g><g class="label" style="" transform="translate(0,36)"><foreignObject width="116.078125" height="24"><div xmlns="http://www.w3.org/1999/xhtml" style="display: table-cell; white-space: nowrap; line-height: 1.5; max-width: 166px; text-align: center;"><span class="nodeLabel markdown-node-label" style=""><p>string user_type</p></span></div></foreignObject></g><g class="label" style="" transform="translate(0,60)"><foreignObject width="118.765625" height="24"><div xmlns="http://www.w3.org/1999/xhtml" style="display: table-cell; white-space: nowrap; line-height: 1.5; max-width: 169px; text-align: center;"><span class="nodeLabel markdown-node-label" style=""><p>string full_name</p></span></div></foreignObject></g></g><g class="methods-group text" transform="translate(-73.296875, 96)"></g><g class="divider" style=""><path d="M-85.296875 -48 C-47.085318257468344 -48, -8.873761514936689 -48, 85.296875 -48 M-85.296875 -48 C-23.3131630586932 -48, 38.6705488826136 -48, 85.296875 -48" stroke="#9370DB" stroke-width="1.3" fill="none" stroke-dasharray="0 0" style=""></path></g><g class="divider" style=""><path d="M-85.296875 72 C-26.390214614332123 72, 32.51644577133575 72, 85.296875 72 M-85.296875 72 C-47.48274627184298 72, -9.668617543685954 72, 85.296875 72" stroke="#9370DB" stroke-width="1.3" fill="none" stroke-dasharray="0 0" style=""></path></g></g><g class="node default" id="classId-students-1" transform="translate(325.484375, 576)"><g class="basic label-container"><path d="M-91.84375 -108 L91.84375 -108 L91.84375 108 L-91.84375 108" stroke="none" stroke-width="0" fill="#ECECFF" style=""></path><path d="M-91.84375 -108 C-24.331362222863433 -108, 43.181025554273134 -108, 91.84375 -108 M-91.84375 -108 C-20.34987736299891 -108, 51.14399527400218 -108, 91.84375 -108 M91.84375 -108 C91.84375 -63.32509756214403, 91.84375 -18.65019512428806, 91.84375 108 M91.84375 -108 C91.84375 -40.87026911506199, 91.84375 26.259461769876026, 91.84375 108 M91.84375 108 C22.922462969298167 108, -45.99882406140367 108, -91.84375 108 M91.84375 108 C47.33180045711882 108, 2.819850914237634 108, -91.84375 108 M-91.84375 108 C-91.84375 28.623259026113672, -91.84375 -50.753481947772656, -91.84375 -108 M-91.84375 108 C-91.84375 61.91645903630953, -91.84375 15.832918072619066, -91.84375 -108" stroke="#9370DB" stroke-width="1.3" fill="none" stroke-dasharray="0 0" style=""></path></g><g class="annotation-group text" transform="translate(0, -84)"></g><g class="label-group text" transform="translate(-32.3125, -84)"><g class="label" style="font-weight: bolder" transform="translate(0,-12)"><foreignObject width="64.625" height="24"><div xmlns="http://www.w3.org/1999/xhtml" style="display: table-cell; white-space: nowrap; line-height: 1.5; max-width: 113px; text-align: center;"><span class="nodeLabel markdown-node-label" style=""><p>students</p></span></div></foreignObject></g></g><g class="members-group text" transform="translate(-79.84375, -36)"><g class="label" style="" transform="translate(0,-12)"><foreignObject width="51.03125" height="24"><div xmlns="http://www.w3.org/1999/xhtml" style="display: table-cell; white-space: nowrap; line-height: 1.5; max-width: 101px; text-align: center;"><span class="nodeLabel markdown-node-label" style=""><p>uuid id</p></span></div></foreignObject></g><g class="label" style="" transform="translate(0,12)"><foreignObject width="117.09375" height="24"><div xmlns="http://www.w3.org/1999/xhtml" style="display: table-cell; white-space: nowrap; line-height: 1.5; max-width: 167px; text-align: center;"><span class="nodeLabel markdown-node-label" style=""><p>string university</p></span></div></foreignObject></g><g class="label" style="" transform="translate(0,36)"><foreignObject width="88.140625" height="24"><div xmlns="http://www.w3.org/1999/xhtml" style="display: table-cell; white-space: nowrap; line-height: 1.5; max-width: 139px; text-align: center;"><span class="nodeLabel markdown-node-label" style=""><p>string major</p></span></div></foreignObject></g><g class="label" style="" transform="translate(0,60)"><foreignObject width="94.90625" height="24"><div xmlns="http://www.w3.org/1999/xhtml" style="display: table-cell; white-space: nowrap; line-height: 1.5; max-width: 145px; text-align: center;"><span class="nodeLabel markdown-node-label" style=""><p>number cgpa</p></span></div></foreignObject></g><g class="label" style="" transform="translate(0,84)"><foreignObject width="127.375" height="24"><div xmlns="http://www.w3.org/1999/xhtml" style="display: table-cell; white-space: nowrap; line-height: 1.5; max-width: 178px; text-align: center;"><span class="nodeLabel markdown-node-label" style=""><p>string resume_url</p></span></div></foreignObject></g></g><g class="methods-group text" transform="translate(-79.84375, 108)"></g><g class="divider" style=""><path d="M-91.84375 -60 C-42.63719821360505 -60, 6.569353572789893 -60, 91.84375 -60 M-91.84375 -60 C-44.20520933721445 -60, 3.4333313255711033 -60, 91.84375 -60" stroke="#9370DB" stroke-width="1.3" fill="none" stroke-dasharray="0 0" style=""></path></g><g class="divider" style=""><path d="M-91.84375 84 C-21.580058848058812 84, 48.683632303882376 84, 91.84375 84 M-91.84375 84 C-52.0972655481101 84, -12.350781096220203 84, 91.84375 84" stroke="#9370DB" stroke-width="1.3" fill="none" stroke-dasharray="0 0" style=""></path></g></g><g class="node default" id="classId-recruiters-2" transform="translate(103.578125, 334)"><g class="basic label-container"><path d="M-95.578125 -84 L95.578125 -84 L95.578125 84 L-95.578125 84" stroke="none" stroke-width="0" fill="#ECECFF" style=""></path><path d="M-95.578125 -84 C-25.480648010264318 -84, 44.616828979471364 -84, 95.578125 -84 M-95.578125 -84 C-24.478787492128703 -84, 46.620550015742594 -84, 95.578125 -84 M95.578125 -84 C95.578125 -32.87571372361149, 95.578125 18.24857255277702, 95.578125 84 M95.578125 -84 C95.578125 -41.08847270938695, 95.578125 1.8230545812261028, 95.578125 84 M95.578125 84 C53.39736947148995 84, 11.216613942979905 84, -95.578125 84 M95.578125 84 C54.34477487777024 84, 13.111424755540483 84, -95.578125 84 M-95.578125 84 C-95.578125 47.69613665951946, -95.578125 11.392273319038921, -95.578125 -84 M-95.578125 84 C-95.578125 32.826993285171206, -95.578125 -18.34601342965759, -95.578125 -84" stroke="#9370DB" stroke-width="1.3" fill="none" stroke-dasharray="0 0" style=""></path></g><g class="annotation-group text" transform="translate(0, -60)"></g><g class="label-group text" transform="translate(-35.59375, -60)"><g class="label" style="font-weight: bolder" transform="translate(0,-12)"><foreignObject width="71.1875" height="24"><div xmlns="http://www.w3.org/1999/xhtml" style="display: table-cell; white-space: nowrap; line-height: 1.5; max-width: 120px; text-align: center;"><span class="nodeLabel markdown-node-label" style=""><p>recruiters</p></span></div></foreignObject></g></g><g class="members-group text" transform="translate(-83.578125, -12)"><g class="label" style="" transform="translate(0,-12)"><foreignObject width="51.03125" height="24"><div xmlns="http://www.w3.org/1999/xhtml" style="display: table-cell; white-space: nowrap; line-height: 1.5; max-width: 101px; text-align: center;"><span class="nodeLabel markdown-node-label" style=""><p>uuid id</p></span></div></foreignObject></g><g class="label" style="" transform="translate(0,12)"><foreignObject width="111.453125" height="24"><div xmlns="http://www.w3.org/1999/xhtml" style="display: table-cell; white-space: nowrap; line-height: 1.5; max-width: 162px; text-align: center;"><span class="nodeLabel markdown-node-label" style=""><p>string company</p></span></div></foreignObject></g><g class="label" style="" transform="translate(0,36)"><foreignObject width="131.5625" height="24"><div xmlns="http://www.w3.org/1999/xhtml" style="display: table-cell; white-space: nowrap; line-height: 1.5; max-width: 182px; text-align: center;"><span class="nodeLabel markdown-node-label" style=""><p>string designation</p></span></div></foreignObject></g></g><g class="methods-group text" transform="translate(-83.578125, 84)"></g><g class="divider" style=""><path d="M-95.578125 -36 C-39.22782101842393 -36, 17.122482963152137 -36, 95.578125 -36 M-95.578125 -36 C-38.826108757854776 -36, 17.92590748429045 -36, 95.578125 -36" stroke="#9370DB" stroke-width="1.3" fill="none" stroke-dasharray="0 0" style=""></path></g><g class="divider" style=""><path d="M-95.578125 60 C-32.805462533134225 60, 29.96719993373155 60, 95.578125 60 M-95.578125 60 C-49.87693484160319 60, -4.175744683206375 60, 95.578125 60" stroke="#9370DB" stroke-width="1.3" fill="none" stroke-dasharray="0 0" style=""></path></g></g><g class="node default" id="classId-jobs-3" transform="translate(103.578125, 576)"><g class="basic label-container"><path d="M-80.0625 -108 L80.0625 -108 L80.0625 108 L-80.0625 108" stroke="none" stroke-width="0" fill="#ECECFF" style=""></path><path d="M-80.0625 -108 C-32.86416774443059 -108, 14.334164511138823 -108, 80.0625 -108 M-80.0625 -108 C-40.575648908451264 -108, -1.0887978169025274 -108, 80.0625 -108 M80.0625 -108 C80.0625 -23.884303338405473, 80.0625 60.23139332318905, 80.0625 108 M80.0625 -108 C80.0625 -37.45881274426098, 80.0625 33.08237451147804, 80.0625 108 M80.0625 108 C37.70527029013654 108, -4.651959419726921 108, -80.0625 108 M80.0625 108 C40.129983481991886 108, 0.1974669639837714 108, -80.0625 108 M-80.0625 108 C-80.0625 63.85473151323206, -80.0625 19.70946302646412, -80.0625 -108 M-80.0625 108 C-80.0625 52.56203265045822, -80.0625 -2.875934699083558, -80.0625 -108" stroke="#9370DB" stroke-width="1.3" fill="none" stroke-dasharray="0 0" style=""></path></g><g class="annotation-group text" transform="translate(0, -84)"></g><g class="label-group text" transform="translate(-15.5625, -84)"><g class="label" style="font-weight: bolder" transform="translate(0,-12)"><foreignObject width="31.125" height="24"><div xmlns="http://www.w3.org/1999/xhtml" style="display: table-cell; white-space: nowrap; line-height: 1.5; max-width: 82px; text-align: center;"><span class="nodeLabel markdown-node-label" style=""><p>jobs</p></span></div></foreignObject></g></g><g class="members-group text" transform="translate(-68.0625, -36)"><g class="label" style="" transform="translate(0,-12)"><foreignObject width="51.03125" height="24"><div xmlns="http://www.w3.org/1999/xhtml" style="display: table-cell; white-space: nowrap; line-height: 1.5; max-width: 101px; text-align: center;"><span class="nodeLabel markdown-node-label" style=""><p>uuid id</p></span></div></foreignObject></g><g class="label" style="" transform="translate(0,12)"><foreignObject width="120.5625" height="24"><div xmlns="http://www.w3.org/1999/xhtml" style="display: table-cell; white-space: nowrap; line-height: 1.5; max-width: 171px; text-align: center;"><span class="nodeLabel markdown-node-label" style=""><p>uuid recruiter_id</p></span></div></foreignObject></g><g class="label" style="" transform="translate(0,36)"><foreignObject width="75.109375" height="24"><div xmlns="http://www.w3.org/1999/xhtml" style="display: table-cell; white-space: nowrap; line-height: 1.5; max-width: 125px; text-align: center;"><span class="nodeLabel markdown-node-label" style=""><p>string title</p></span></div></foreignObject></g><g class="label" style="" transform="translate(0,60)"><foreignObject width="90.28125" height="24"><div xmlns="http://www.w3.org/1999/xhtml" style="display: table-cell; white-space: nowrap; line-height: 1.5; max-width: 140px; text-align: center;"><span class="nodeLabel markdown-node-label" style=""><p>string status</p></span></div></foreignObject></g><g class="label" style="" transform="translate(0,84)"><foreignObject width="105.03125" height="24"><div xmlns="http://www.w3.org/1999/xhtml" style="display: table-cell; white-space: nowrap; line-height: 1.5; max-width: 155px; text-align: center;"><span class="nodeLabel markdown-node-label" style=""><p>string location</p></span></div></foreignObject></g></g><g class="methods-group text" transform="translate(-68.0625, 108)"></g><g class="divider" style=""><path d="M-80.0625 -60 C-45.711436991044934 -60, -11.360373982089868 -60, 80.0625 -60 M-80.0625 -60 C-26.694278909379747 -60, 26.673942181240506 -60, 80.0625 -60" stroke="#9370DB" stroke-width="1.3" fill="none" stroke-dasharray="0 0" style=""></path></g><g class="divider" style=""><path d="M-80.0625 84 C-46.00227019849439 84, -11.942040396988773 84, 80.0625 84 M-80.0625 84 C-23.75789866881086 84, 32.54670266237828 84, 80.0625 84" stroke="#9370DB" stroke-width="1.3" fill="none" stroke-dasharray="0 0" style=""></path></g></g><g class="node default" id="classId-job_applications-4" transform="translate(214.53125, 842)"><g class="basic label-container"><path d="M-115.95703125 -108 L115.95703125 -108 L115.95703125 108 L-115.95703125 108" stroke="none" stroke-width="0" fill="#ECECFF" style=""></path><path d="M-115.95703125 -108 C-59.17994831845957 -108, -2.402865386919146 -108, 115.95703125 -108 M-115.95703125 -108 C-53.26019246310215 -108, 9.4366463237957 -108, 115.95703125 -108 M115.95703125 -108 C115.95703125 -47.873206063825926, 115.95703125 12.253587872348149, 115.95703125 108 M115.95703125 -108 C115.95703125 -53.9496356180371, 115.95703125 0.10072876392580099, 115.95703125 108 M115.95703125 108 C59.930403672305864 108, 3.903776094611729 108, -115.95703125 108 M115.95703125 108 C43.39957809980163 108, -29.15787505039674 108, -115.95703125 108 M-115.95703125 108 C-115.95703125 52.62315179684397, -115.95703125 -2.7536964063120593, -115.95703125 -108 M-115.95703125 108 C-115.95703125 54.63848355697988, -115.95703125 1.2769671139597563, -115.95703125 -108" stroke="#9370DB" stroke-width="1.3" fill="none" stroke-dasharray="0 0" style=""></path></g><g class="annotation-group text" transform="translate(0, -84)"></g><g class="label-group text" transform="translate(-60.7421875, -84)"><g class="label" style="font-weight: bolder" transform="translate(0,-12)"><foreignObject width="121.484375" height="24"><div xmlns="http://www.w3.org/1999/xhtml" style="display: table-cell; white-space: nowrap; line-height: 1.5; max-width: 172px; text-align: center;"><span class="nodeLabel markdown-node-label" style=""><p>job_applications</p></span></div></foreignObject></g></g><g class="members-group text" transform="translate(-103.95703125, -36)"><g class="label" style="" transform="translate(0,-12)"><foreignObject width="51.03125" height="24"><div xmlns="http://www.w3.org/1999/xhtml" style="display: table-cell; white-space: nowrap; line-height: 1.5; max-width: 101px; text-align: center;"><span class="nodeLabel markdown-node-label" style=""><p>uuid id</p></span></div></foreignObject></g><g class="label" style="" transform="translate(0,12)"><foreignObject width="82.359375" height="24"><div xmlns="http://www.w3.org/1999/xhtml" style="display: table-cell; white-space: nowrap; line-height: 1.5; max-width: 132px; text-align: center;"><span class="nodeLabel markdown-node-label" style=""><p>uuid job_id</p></span></div></foreignObject></g><g class="label" style="" transform="translate(0,36)"><foreignObject width="115.359375" height="24"><div xmlns="http://www.w3.org/1999/xhtml" style="display: table-cell; white-space: nowrap; line-height: 1.5; max-width: 165px; text-align: center;"><span class="nodeLabel markdown-node-label" style=""><p>uuid student_id</p></span></div></foreignObject></g><g class="label" style="" transform="translate(0,60)"><foreignObject width="90.28125" height="24"><div xmlns="http://www.w3.org/1999/xhtml" style="display: table-cell; white-space: nowrap; line-height: 1.5; max-width: 140px; text-align: center;"><span class="nodeLabel markdown-node-label" style=""><p>string status</p></span></div></foreignObject></g><g class="label" style="" transform="translate(0,84)"><foreignObject width="147.171875" height="24"><div xmlns="http://www.w3.org/1999/xhtml" style="display: table-cell; white-space: nowrap; line-height: 1.5; max-width: 197px; text-align: center;"><span class="nodeLabel markdown-node-label" style=""><p>datetime applied_at</p></span></div></foreignObject></g></g><g class="methods-group text" transform="translate(-103.95703125, 108)"></g><g class="divider" style=""><path d="M-115.95703125 -60 C-34.1505957676964 -60, 47.6558397146072 -60, 115.95703125 -60 M-115.95703125 -60 C-61.00851930039827 -60, -6.060007350796539 -60, 115.95703125 -60" stroke="#9370DB" stroke-width="1.3" fill="none" stroke-dasharray="0 0" style=""></path></g><g class="divider" style=""><path d="M-115.95703125 84 C-66.13288746287738 84, -16.308743675754755 84, 115.95703125 84 M-115.95703125 84 C-45.68694494159317 84, 24.583141366813663 84, 115.95703125 84" stroke="#9370DB" stroke-width="1.3" fill="none" stroke-dasharray="0 0" style=""></path></g></g><g class="node default" id="classId-interviews-5" transform="translate(214.53125, 1120)"><g class="basic label-container"><path d="M-114.5234375 -120 L114.5234375 -120 L114.5234375 120 L-114.5234375 120" stroke="none" stroke-width="0" fill="#ECECFF" style=""></path><path d="M-114.5234375 -120 C-26.632672889835575 -120, 61.25809172032885 -120, 114.5234375 -120 M-114.5234375 -120 C-40.449170189284345 -120, 33.62509712143131 -120, 114.5234375 -120 M114.5234375 -120 C114.5234375 -59.65337549379722, 114.5234375 0.693249012405559, 114.5234375 120 M114.5234375 -120 C114.5234375 -39.42225216110498, 114.5234375 41.15549567779004, 114.5234375 120 M114.5234375 120 C54.6513140382938 120, -5.220809423412405 120, -114.5234375 120 M114.5234375 120 C62.13138168727212 120, 9.739325874544235 120, -114.5234375 120 M-114.5234375 120 C-114.5234375 71.42615620992805, -114.5234375 22.85231241985612, -114.5234375 -120 M-114.5234375 120 C-114.5234375 44.00779764447121, -114.5234375 -31.98440471105758, -114.5234375 -120" stroke="#9370DB" stroke-width="1.3" fill="none" stroke-dasharray="0 0" style=""></path></g><g class="annotation-group text" transform="translate(0, -96)"></g><g class="label-group text" transform="translate(-38.078125, -96)"><g class="label" style="font-weight: bolder" transform="translate(0,-12)"><foreignObject width="76.15625" height="24"><div xmlns="http://www.w3.org/1999/xhtml" style="display: table-cell; white-space: nowrap; line-height: 1.5; max-width: 124px; text-align: center;"><span class="nodeLabel markdown-node-label" style=""><p>interviews</p></span></div></foreignObject></g></g><g class="members-group text" transform="translate(-102.5234375, -48)"><g class="label" style="" transform="translate(0,-12)"><foreignObject width="51.03125" height="24"><div xmlns="http://www.w3.org/1999/xhtml" style="display: table-cell; white-space: nowrap; line-height: 1.5; max-width: 101px; text-align: center;"><span class="nodeLabel markdown-node-label" style=""><p>uuid id</p></span></div></foreignObject></g><g class="label" style="" transform="translate(0,12)"><foreignObject width="82.359375" height="24"><div xmlns="http://www.w3.org/1999/xhtml" style="display: table-cell; white-space: nowrap; line-height: 1.5; max-width: 132px; text-align: center;"><span class="nodeLabel markdown-node-label" style=""><p>uuid job_id</p></span></div></foreignObject></g><g class="label" style="" transform="translate(0,36)"><foreignObject width="115.359375" height="24"><div xmlns="http://www.w3.org/1999/xhtml" style="display: table-cell; white-space: nowrap; line-height: 1.5; max-width: 165px; text-align: center;"><span class="nodeLabel markdown-node-label" style=""><p>uuid student_id</p></span></div></foreignObject></g><g class="label" style="" transform="translate(0,60)"><foreignObject width="120.5625" height="24"><div xmlns="http://www.w3.org/1999/xhtml" style="display: table-cell; white-space: nowrap; line-height: 1.5; max-width: 171px; text-align: center;"><span class="nodeLabel markdown-node-label" style=""><p>uuid recruiter_id</p></span></div></foreignObject></g><g class="label" style="" transform="translate(0,84)"><foreignObject width="166.96875" height="24"><div xmlns="http://www.w3.org/1999/xhtml" style="display: table-cell; white-space: nowrap; line-height: 1.5; max-width: 217px; text-align: center;"><span class="nodeLabel markdown-node-label" style=""><p>datetime scheduled_at</p></span></div></foreignObject></g><g class="label" style="" transform="translate(0,108)"><foreignObject width="90.28125" height="24"><div xmlns="http://www.w3.org/1999/xhtml" style="display: table-cell; white-space: nowrap; line-height: 1.5; max-width: 140px; text-align: center;"><span class="nodeLabel markdown-node-label" style=""><p>string status</p></span></div></foreignObject></g></g><g class="methods-group text" transform="translate(-102.5234375, 120)"></g><g class="divider" style=""><path d="M-114.5234375 -72 C-37.82016234249785 -72, 38.883112815004296 -72, 114.5234375 -72 M-114.5234375 -72 C-63.852891042434216 -72, -13.182344584868432 -72, 114.5234375 -72" stroke="#9370DB" stroke-width="1.3" fill="none" stroke-dasharray="0 0" style=""></path></g><g class="divider" style=""><path d="M-114.5234375 96 C-46.56992201598379 96, 21.383593468032416 96, 114.5234375 96 M-114.5234375 96 C-35.71096351545617 96, 43.10151046908766 96, 114.5234375 96" stroke="#9370DB" stroke-width="1.3" fill="none" stroke-dasharray="0 0" style=""></path></g></g></g></g></g></svg>